<svg width="9" height="16" viewBox="0 0 9 16" fill="none" xmlns="http://www.w3.org/2000/svg">
<path d="M8.99981 14.6666C8.99566 14.4907 8.92218 14.3237 8.79539 14.2017L2.60008 8.00642L8.79539 1.81111C8.85925 1.74898 8.91001 1.67469 8.94468 1.59261C8.97934 1.51053 8.9972 1.42234 8.99721 1.33325C8.99718 1.20062 8.95759 1.07102 8.88351 0.961018C8.80944 0.851012 8.70424 0.765596 8.58136 0.715692C8.45849 0.665787 8.32352 0.653661 8.19372 0.680863C8.06392 0.708066 7.94518 0.773361 7.85268 0.868402L1.18601 7.53507C1.06104 7.6601 0.990829 7.82964 0.990829 8.00642C0.990829 8.1832 1.06104 8.35275 1.18601 8.47778L7.85268 15.1444C7.94578 15.2413 8.06595 15.3077 8.19746 15.3351C8.32896 15.3624 8.46566 15.3494 8.58965 15.2978C8.71364 15.2461 8.81914 15.1582 8.89233 15.0456C8.96552 14.933 9.00298 14.8009 8.99981 14.6666Z" fill="#162950"/>
</svg>
