<svg width="12" height="14" viewBox="0 0 12 14" fill="none" xmlns="http://www.w3.org/2000/svg">
<path fill-rule="evenodd" clip-rule="evenodd" d="M9.33317 2.33334L9.26649 2.26667H9.39987V12.3333C9.39987 12.3673 9.39431 12.3855 9.39186 12.3919L9.39184 12.392L9.39177 12.392C9.38538 12.3944 9.36716 12.4 9.3332 12.4H2.66654C2.63258 12.4 2.61436 12.3944 2.60797 12.392L2.6079 12.392L2.60788 12.3919C2.60543 12.3855 2.59987 12.3673 2.59987 12.3333V2.26667H2.73318L2.6665 2.33334H9.33317ZM1.39987 2.26667V12.3333C1.39987 12.6692 1.51373 12.9965 1.75855 13.2413C2.00337 13.4861 2.33065 13.6 2.66654 13.6H9.3332C9.66908 13.6 9.99637 13.4861 10.2412 13.2413C10.486 12.9965 10.5999 12.6692 10.5999 12.3333V2.26667H11.3332V1.06667H8.06649L7.33317 0.333344H4.6665L3.93318 1.06667H0.666504V2.26667H1.39987ZM7.93314 11V3.66667H6.73314V11H7.93314ZM5.2665 3.66667V11H4.0665V3.66667H5.2665Z" fill="#162950"/>
</svg>
