<svg width="13" height="13" viewBox="0 0 13 13" fill="none" xmlns="http://www.w3.org/2000/svg">
<path fill-rule="evenodd" clip-rule="evenodd" d="M0.0666504 0.0666809H10.6V8.06668H10.6667C11.8529 8.06668 12.6 9.2118 12.6 10.3333C12.6 11.4549 11.8529 12.6 10.6667 12.6H1.99998C0.81322 12.6 0.0666504 11.4516 0.0666504 10.3333C0.0666504 10.3333 0.0666504 10.3334 0.0666504 10.3333V0.0666809ZM1.26665 10.3333C1.26665 10.3334 1.26665 10.3333 1.26665 10.3333C1.26665 11.0536 1.71279 11.4 1.99998 11.4C2.28718 11.4 2.73332 11.0536 2.73332 10.3333C2.73332 9.6131 2.28718 9.26668 1.99998 9.26668C1.7128 9.26668 1.26668 9.61314 1.26665 10.3333ZM3.70401 9.26668C3.8533 9.59789 3.93332 9.96723 3.93332 10.3333C3.93332 10.6995 3.8533 11.0688 3.70401 11.4H10.6667C10.9544 11.4 11.4 11.0555 11.4 10.3333C11.4 9.61115 10.9544 9.26668 10.6667 9.26668H3.70401ZM1.99998 8.06668H9.39998V1.26668H1.26665V8.2289C1.48628 8.12528 1.7319 8.06668 1.99998 8.06668ZM7.99998 3.93335H2.66665V2.73335H7.99998V3.93335ZM5.99998 6.60001H2.66665V5.40001H5.99998V6.60001Z" fill="#162950"/>
</svg>
