<svg width="14" height="14" viewBox="0 0 14 14" fill="none" xmlns="http://www.w3.org/2000/svg">
<path d="M10.9999 0.669922C10.4017 0.669922 9.80349 0.896713 9.35016 1.35026L8.07672 2.6237C8.03118 2.65591 7.99135 2.69552 7.95888 2.74089L1.9719 8.72787C1.83191 8.86786 1.72938 9.04195 1.67503 9.23307L0.686094 12.696C0.661705 12.7817 0.660652 12.8723 0.683043 12.9585C0.705434 13.0448 0.750457 13.1234 0.813454 13.1864C0.87645 13.2494 0.955134 13.2945 1.04137 13.3169C1.1276 13.3392 1.21824 13.3382 1.30393 13.3138L4.76747 12.3249C4.76769 12.3247 4.76791 12.3244 4.76813 12.3242C4.95797 12.2696 5.13163 12.1684 5.27203 12.028L11.2466 6.05273C11.3025 6.01575 11.3503 5.96793 11.3873 5.91211L12.6496 4.64974C13.5567 3.7427 13.5567 2.2573 12.6496 1.35026C12.1963 0.896713 11.5981 0.669922 10.9999 0.669922ZM10.9999 1.66406C11.3402 1.66406 11.68 1.79517 11.942 2.05729C11.9422 2.05729 11.9424 2.05729 11.9426 2.05729C12.4676 2.58225 12.4676 3.41775 11.9426 3.94271L10.9628 4.92253L9.07737 3.03711L10.0572 2.05729C10.3192 1.79517 10.6596 1.66406 10.9999 1.66406ZM8.37034 3.74414L10.2558 5.62956L4.56435 11.321C4.54481 11.3404 4.52005 11.3552 4.49208 11.3633L4.16396 11.457L2.54287 9.83594L2.63662 9.50716C2.63662 9.50694 2.63662 9.50673 2.63662 9.50651C2.64426 9.47963 2.65826 9.45557 2.67893 9.4349L8.37034 3.74414ZM2.22841 10.9355L3.06435 11.7715L1.89443 12.1055L2.22841 10.9355Z" fill="#162950"/>
</svg>
