<svg width="22" height="13" viewBox="0 0 22 13" fill="none" xmlns="http://www.w3.org/2000/svg">
<path d="M16.7071 0.793006C16.5116 0.597506 16.2561 0.500007 16.0001 0.500007C15.7441 0.500007 15.4886 0.597506 15.2931 0.793006C14.9026 1.18351 14.9026 1.81651 15.2931 2.20701L18.5861 5.50001L1.00013 5.50001C0.448126 5.50001 0.000125885 5.94801 0.000125885 6.50001C0.000125885 7.052 0.448126 7.5 1.00013 7.5L18.5861 7.5L15.2931 10.793C14.9026 11.1835 14.9026 11.8165 15.2931 12.207C15.6836 12.5975 16.3166 12.5975 16.7071 12.207L21.7071 7.207C22.0976 6.8165 22.0976 6.18351 21.7071 5.79301L16.7071 0.793006Z" fill="#162950"/>
</svg>
