<svg width="12" height="7" viewBox="0 0 12 7" fill="none" xmlns="http://www.w3.org/2000/svg">
<path d="M10.9999 0.000139231C10.868 0.00325735 10.7427 0.0583658 10.6513 0.15346L6.0048 4.79994L1.35832 0.15346C1.31172 0.105562 1.256 0.0674899 1.19444 0.0414915C1.13289 0.0154931 1.06674 0.00209625 0.999919 0.00209236C0.900452 0.0021185 0.803253 0.0318078 0.720749 0.0873647C0.638244 0.142922 0.574182 0.221821 0.536754 0.313977C0.499325 0.406133 0.49023 0.507358 0.510632 0.60471C0.531034 0.702061 0.580006 0.791117 0.651286 0.860491L5.65129 5.86049C5.74506 5.95422 5.87222 6.00688 6.0048 6.00688C6.13739 6.00688 6.26455 5.95422 6.35832 5.86049L11.3583 0.860491C11.4309 0.790665 11.4808 0.700535 11.5013 0.601907C11.5218 0.50328 11.5121 0.400754 11.4733 0.30776C11.4346 0.214767 11.3687 0.135642 11.2842 0.0807509C11.1997 0.02586 11.1006 -0.00223739 10.9999 0.000139231Z" fill="white"/>
</svg>
