<svg width="22" height="21" viewBox="0 0 22 21" fill="none" xmlns="http://www.w3.org/2000/svg">
<path d="M5.23822 0.489349C5.03948 0.492454 4.8501 0.574317 4.71167 0.716956C4.57324 0.859595 4.49709 1.05135 4.49994 1.25009V4.00009H1.74994C1.65056 3.99869 1.55188 4.01705 1.45966 4.05411C1.36743 4.09117 1.28349 4.14619 1.21271 4.21597C1.14194 4.28575 1.08573 4.36891 1.04737 4.4606C1.00901 4.5523 0.989258 4.6507 0.989258 4.75009C0.989258 4.84949 1.00901 4.94789 1.04737 5.03958C1.08573 5.13127 1.14194 5.21443 1.21271 5.28421C1.28349 5.35399 1.36743 5.40902 1.45966 5.44608C1.55188 5.48314 1.65056 5.5015 1.74994 5.50009H4.49994V13.7501C4.49994 15.5361 5.96397 17.0001 7.74994 17.0001H15.9999V19.7501C15.9985 19.8495 16.0169 19.9481 16.054 20.0404C16.091 20.1326 16.146 20.2165 16.2158 20.2873C16.2856 20.3581 16.3688 20.4143 16.4605 20.4527C16.5521 20.491 16.6505 20.5108 16.7499 20.5108C16.8493 20.5108 16.9477 20.491 17.0394 20.4527C17.1311 20.4143 17.2143 20.3581 17.2841 20.2873C17.3538 20.2165 17.4089 20.1326 17.4459 20.0404C17.483 19.9481 17.5013 19.8495 17.4999 19.7501V17.0001H20.2499C20.3493 17.0015 20.448 16.9831 20.5402 16.9461C20.6324 16.909 20.7164 16.854 20.7872 16.7842C20.8579 16.7144 20.9141 16.6313 20.9525 16.5396C20.9909 16.4479 21.0106 16.3495 21.0106 16.2501C21.0106 16.1507 20.9909 16.0523 20.9525 15.9606C20.9141 15.8689 20.8579 15.7858 20.7872 15.716C20.7164 15.6462 20.6324 15.5912 20.5402 15.5541C20.448 15.517 20.3493 15.4987 20.2499 15.5001H16.873C16.7925 15.4869 16.7103 15.4869 16.6298 15.5001H7.74994C6.77491 15.5001 5.99994 14.7251 5.99994 13.7501V4.87314C6.01317 4.79262 6.01317 4.71049 5.99994 4.62997V1.25009C6.00138 1.14971 5.98265 1.05006 5.94487 0.957046C5.90709 0.864034 5.85102 0.779553 5.77998 0.70861C5.70895 0.637666 5.6244 0.581705 5.53134 0.544042C5.43828 0.506379 5.3386 0.487781 5.23822 0.489349ZM6.99994 4.00009V5.50009H14.2499C15.225 5.50009 15.9999 6.27506 15.9999 7.25009V14.5001H17.4999V7.25009C17.4999 5.46412 16.0359 4.00009 14.2499 4.00009H6.99994Z" fill="#162950" stroke="#162950" stroke-width="0.3"/>
</svg>
