<svg width="14" height="14" viewBox="0 0 14 14" fill="none" xmlns="http://www.w3.org/2000/svg">
<path fill-rule="evenodd" clip-rule="evenodd" d="M12.3335 10.8861C13.1101 10.6114 13.6668 9.87041 13.6668 8.99998C13.6668 7.89582 12.771 6.99998 11.6668 6.99998C10.5626 6.99998 9.6668 7.89582 9.6668 8.99998C9.6668 9.87043 10.2235 10.6114 11.0002 10.8861V11C11.0002 11.7344 10.4012 12.3333 9.66683 12.3333H7.00016C6.26579 12.3333 5.66683 11.7344 5.66683 11V8.88607C6.12085 8.72547 6.4997 8.40552 6.73611 7.99351C8.45179 7.30295 9.66683 5.62137 9.66683 3.65102V1.66665C9.66683 0.932272 9.06787 0.333313 8.3335 0.333313H7.00016V1.66665H8.3335V3.66665C8.3335 5.50519 6.8387 6.99998 5.00016 6.99998C3.16162 6.99998 1.66683 5.50519 1.66683 3.65102V1.66665H3.00016V0.333313H1.66683C1.31006 0.333313 0.976725 0.471334 0.724121 0.723938C0.471517 0.976542 0.333496 1.31248 0.333496 1.66665V3.66665C0.333496 5.62616 1.54858 7.30416 3.26432 7.99379C3.50074 8.40569 3.87956 8.72554 4.3335 8.88609V11C4.3335 12.4713 5.52881 13.6666 7.00016 13.6666H9.66683C11.1382 13.6666 12.3335 12.4713 12.3335 11V10.8861ZM10.8335 8.99998C10.8335 9.46092 11.2059 9.83332 11.6668 9.83332C12.1277 9.83332 12.5001 9.46092 12.5001 8.99998C12.5001 8.53905 12.1277 8.16665 11.6668 8.16665C11.2059 8.16665 10.8335 8.53905 10.8335 8.99998Z" fill="#162950"/>
</svg>
