<svg width="12" height="17" viewBox="0 0 12 17" fill="none" xmlns="http://www.w3.org/2000/svg">
<path fill-rule="evenodd" clip-rule="evenodd" d="M10 7.16667V4.5C10 2.29133 8.20867 0.5 6 0.5C3.79133 0.5 2 2.29133 2 4.5V7.16667H0V16.5H12V7.16667H10ZM6.66667 12.3153V13.8333H5.33333V12.3153C4.93667 12.084 4.66667 11.6593 4.66667 11.1667C4.66667 10.4307 5.264 9.83333 6 9.83333C6.736 9.83333 7.33333 10.4307 7.33333 11.1667C7.33333 11.6587 7.064 12.084 6.66667 12.3153ZM3.33333 4.5V7.16667H8.66667V4.5C8.66667 3.02933 7.47 1.83333 6 1.83333C4.52933 1.83333 3.33333 3.02933 3.33333 4.5Z" fill="#162950"/>
</svg>
