<svg width="12" height="13" viewBox="0 0 12 13" fill="none" xmlns="http://www.w3.org/2000/svg">
<path d="M10.9091 0.5H1.09091C0.488182 0.5 0 0.988182 0 1.59091V11.4091C0 12.0118 0.488182 12.5 1.09091 12.5H10.9091C11.5118 12.5 12 12.0118 12 11.4091V1.59091C12 0.988182 11.5113 0.5 10.9091 0.5ZM9.65836 4.70382L5.53473 8.82745C5.43218 8.93 5.29364 8.98727 5.14909 8.98727C5.00455 8.98727 4.86545 8.93 4.76345 8.82745L2.88 6.944C2.66673 6.73073 2.66673 6.386 2.88 6.17273C3.09327 5.95945 3.438 5.95945 3.65127 6.17273L5.14909 7.67055L8.88709 3.93255C9.10036 3.71927 9.44509 3.71927 9.65836 3.93255C9.87164 4.14582 9.87164 4.49055 9.65836 4.70382Z" fill="#162950"/>
</svg>
