<svg width="185" height="160" viewBox="0 0 185 160" fill="none" xmlns="http://www.w3.org/2000/svg">
<path d="M5.00009 0C3.93926 0.000106067 2.92191 0.421567 2.17178 1.17169C1.42166 1.92181 1.0002 2.93917 1.00009 4V67.2891C0.893198 67.8149 0.893198 68.3569 1.00009 68.8828V116C1.0002 117.061 1.42166 118.078 2.17178 118.828C2.92191 119.578 3.93926 120 5.00009 120H141C142.061 120 143.078 119.578 143.828 118.828C144.579 118.078 145 117.061 145 116V84.7031C145.072 84.2686 145.072 83.8251 145 83.3906V4C145 2.93917 144.579 1.92181 143.828 1.17169C143.078 0.421567 142.061 0.000106067 141 0H5.00009ZM9.00009 8H137V74.3438L115.828 53.1719C115.449 52.7929 114.998 52.4939 114.502 52.2926C114.005 52.0913 113.473 51.9918 112.938 52C111.898 52.0166 110.907 52.4369 110.172 53.1719L93.1251 70.2188L51.9454 25.2969C51.5845 24.9028 51.1483 24.585 50.6626 24.3622C50.1768 24.1395 49.6514 24.0163 49.1173 24C48.0832 23.9707 47.078 24.3431 46.3126 25.0391L9.00009 58.9609V8ZM113 20C110.878 20 108.844 20.8429 107.343 22.3431C105.843 23.8434 105 25.8783 105 28C105 30.1217 105.843 32.1566 107.343 33.6569C108.844 35.1571 110.878 36 113 36C115.122 36 117.157 35.1571 118.657 33.6569C120.157 32.1566 121 30.1217 121 28C121 25.8783 120.157 23.8434 118.657 22.3431C117.157 20.8429 115.122 20 113 20ZM153 20V28H157V132H29.0001V128H21.0001V136C21.0002 137.061 21.4217 138.078 22.1718 138.828C22.9219 139.578 23.9393 140 25.0001 140H161C162.061 140 163.078 139.578 163.828 138.828C164.579 138.078 165 137.061 165 136V24C165 22.9392 164.579 21.9218 163.828 21.1717C163.078 20.4216 162.061 20.0001 161 20H153ZM48.7423 33.6406L87.4688 75.875L78.172 85.1719C77.7881 85.5405 77.4816 85.9819 77.2704 86.4704C77.0593 86.959 76.9477 87.4847 76.9423 88.0169C76.9369 88.549 77.0377 89.0769 77.2389 89.5696C77.44 90.0623 77.7375 90.51 78.1138 90.8863C78.4901 91.2626 78.9377 91.56 79.4305 91.7612C79.9232 91.9624 80.4511 92.0632 80.9832 92.0578C81.5154 92.0524 82.0411 91.9408 82.5296 91.7297C83.0182 91.5185 83.4596 91.212 83.8282 90.8281L95.0704 79.5859C95.7002 79.229 96.2213 78.7079 96.5782 78.0781L113 61.6562L137 85.6562V112H9.00009V69.7656L48.7423 33.6406ZM173 40V48H177V152H49.0001V148H41.0001V156C41.0002 157.061 41.4217 158.078 42.1718 158.828C42.9219 159.578 43.9393 160 45.0001 160H181C182.061 160 183.078 159.578 183.828 158.828C184.579 158.078 185 157.061 185 156V44C185 42.9392 184.579 41.9218 183.828 41.1717C183.078 40.4216 182.061 40.0001 181 40H173Z" fill="#162950"/>
</svg>
