<svg width="22" height="13" viewBox="0 0 22 13" fill="none" xmlns="http://www.w3.org/2000/svg">
<path d="M5.29287 12.207C5.48838 12.4025 5.74387 12.5 5.99987 12.5C6.25587 12.5 6.51137 12.4025 6.70687 12.207C7.09737 11.8165 7.09737 11.1835 6.70687 10.793L3.41387 7.49999H20.9999C21.5519 7.49999 21.9999 7.05199 21.9999 6.49999C21.9999 5.948 21.5519 5.5 20.9999 5.5H3.41387L6.70687 2.207C7.09737 1.8165 7.09737 1.1835 6.70687 0.792997C6.31637 0.402497 5.68337 0.402497 5.29287 0.792997L0.292875 5.793C-0.097625 6.1835 -0.097625 6.81649 0.292875 7.20699L5.29287 12.207Z" fill="#162950"/>
</svg>
