<svg width="12" height="7" viewBox="0 0 12 7" fill="none" xmlns="http://www.w3.org/2000/svg">
<path d="M10.9999 0.500139C10.868 0.503257 10.7427 0.558366 10.6513 0.65346L6.0048 5.29994L1.35832 0.65346C1.31172 0.605562 1.256 0.56749 1.19444 0.541492C1.13289 0.515493 1.06674 0.502096 0.999919 0.502092C0.900452 0.502118 0.803253 0.531808 0.720749 0.587365C0.638244 0.642922 0.574182 0.721821 0.536754 0.813977C0.499325 0.906133 0.49023 1.00736 0.510632 1.10471C0.531034 1.20206 0.580006 1.29112 0.651286 1.36049L5.65129 6.36049C5.74506 6.45422 5.87222 6.50688 6.0048 6.50688C6.13739 6.50688 6.26455 6.45422 6.35832 6.36049L11.3583 1.36049C11.4309 1.29066 11.4808 1.20053 11.5013 1.10191C11.5218 1.00328 11.5121 0.900754 11.4733 0.80776C11.4346 0.714767 11.3687 0.635642 11.2842 0.580751C11.1997 0.52586 11.1006 0.497763 10.9999 0.500139Z" fill="#162950"/>
</svg>
